<?xml version="1.0" encoding="UTF-8"?>
<svg width="373.25mm" height="240.94mm" version="1.1" viewBox="0 0 373.25 240.94" xmlns="http://www.w3.org/2000/svg" xmlns:cc="http://creativecommons.org/ns#" xmlns:dc="http://purl.org/dc/elements/1.1/" xmlns:rdf="http://www.w3.org/1999/02/22-rdf-syntax-ns#">
 <metadata>
  <rdf:RDF>
   <cc:Work rdf:about="">
    <dc:format>image/svg+xml</dc:format>
    <dc:type rdf:resource="http://purl.org/dc/dcmitype/StillImage"/>
    <dc:title/>
   </cc:Work>
  </rdf:RDF>
 </metadata>
 <g fill="#e70000" stroke="#000" stroke-width="3.9425" aria-label="404">
  <path d="m1.9712 158.53h66.059v24.192h27.821v-24.192h17.069v-23.319h-17.069v-90.117h-36.423l-57.457 90.52zm66.597-23.319h-37.297v-1.0752l36.222-57.323h1.0752z"/>
  <path d="m186.3 185.75c34.609 0 55.508-26.343 55.576-71.704 0.0672-45.025-21.101-70.83-55.576-70.83-34.541 0-55.508 25.738-55.576 70.83-0.13441 45.227 20.9 71.637 55.576 71.704zm0-24.125c-15.792 0-26.007-15.86-25.94-47.579 0.0672-31.249 10.215-46.974 25.94-46.974 15.658 0 25.873 15.725 25.873 46.974 0.0672 31.719-10.147 47.579-25.873 47.579z"/>
  <path d="m260.49 158.53h66.059v24.192h27.821v-24.192h17.069v-23.319h-17.069v-90.117h-36.423l-57.457 90.52zm66.597-23.319h-37.297v-1.0752l36.222-57.323h1.0752z"/>
 </g>
 <g transform="rotate(213.78 221.37 32.778)" stroke="#000" stroke-linecap="round" stroke-linejoin="round" stroke-width="4.2333">
  <path d="m164.38 66.28c-0.77295 0.12882-2.9327 9.6126-11.403 9.2604-10.574-0.4396-7.8736-10.583-7.8736-10.583l8.129-31.75s2.7097-10.583 13.293-10.583c7.9375 0 6.5827 5.2917 6.5827 5.2917s9.157-4.4974 20.214-4.9137c17.721-0.6671 15.858 11.085 12.73 22.112l-1.2006 3.2128s-11.431 27.592-22.015 27.592c-10.583 0-5.9838-10.961-5.9838-10.961l4.0645-15.875s1.5922-5.4806-3.6995-5.4806-6.8839 5.4806-6.8839 5.4806z" fill="#007fff"/>
  <circle cx="150.3" cy="83.33" r="6.9926"/>
  <circle cx="178.27" cy="83.33" r="6.9926"/>
 </g>
 <g transform="rotate(199.65 73.852 36.663)" stroke="#000" stroke-linecap="round" stroke-linejoin="round" stroke-width="4.2333">
  <circle cx="37.616" cy="7.5705" r="15.497"/>
  <g transform="translate(-53.77 -68.705)" fill="none">
   <path d="m85.082 92.672-19.504 39.342-24.34 3.1527 8.4649 19.148-16.709-6.7076"/>
   <path d="m65.579 132.01 20.411 6.9926-1.7009 18.521 13.772-6.4412"/>
   <path d="m80.698 102.15-27.351-25.47"/>
   <path d="m80.698 102.15 32.397 12.41"/>
  </g>
 </g>
 <g stroke="#000" stroke-linecap="round" stroke-linejoin="round">
  <path d="m70.033 159.96c-3.1877 9.2573 1.6985 19.276 10.956 22.464l7.25e-4 2.5e-4c9.2573 3.1878 19.277-1.6983 22.465-10.956l20.83-60.49-11.354-6.6974 1.3917 2.8536-22.461-10.562zm1.092 10.085 1.8614-5.4056 15.148-4.1101 0.06302-0.18296-12.277-4.2277 2.1928-6.3679 23.455 8.0768-1.83 5.3145-15.241 4.2313-0.04748 0.13768 12.323 4.2435-2.1925 6.3672zm10.423-30.27 2.9971-8.7037 26.121 0.33463-2.3662 6.8717-4.9546-0.19464-2.666 7.7421 4.024 2.8971-2.3662 6.8717zm6.4301-18.673 1.8614-5.4056 15.148-4.11 0.0632-0.18377-12.277-4.2277 2.1925-6.3672 23.455 8.0768-1.8298 5.3138-15.241 4.2313-0.0475 0.13772 12.323 4.2435-2.1928 6.3679zm1.4967 16.637 6.9368 5.0022 1.6721-4.856-8.5459-0.32924z" stroke-width=".45297"/>
  <path d="m158.77 129.82-24.073 49.004 6.3282-2.9538-15.156 24.72 109.65 39.861 17.359-17.163-6.3876-3.0736 11.803-54.214zm73.106 35.885c13.922 5.0615 21.59 18.282 15.363 35.41-6.2268 17.128-20.595 22.337-34.517 17.276-14.023-5.0979-21.554-18.382-15.363-35.41 6.2267-17.128 20.494-22.374 34.517-17.276zm-75.953-26.818 11.819 4.2968 8.4709 33.471 0.39995 0.1456 9.7588-26.843 13.923 5.0617-18.644 51.283-11.62-4.2244-8.7341-33.68-0.29964-0.10897-9.7954 26.944-13.923-5.0617zm71.546 38.939c-6.9112-2.5126-12.438 1.1479-15.788 10.363-3.3501 9.2149-1.4646 15.57 5.4466 18.082s12.438-1.1479 15.788-10.363c3.3501-9.2149 1.4646-15.57-5.4466-18.083z" stroke-width=".99638"/>
  <path d="m322.37 177.18-22.278-21.485-3.3303 2.1319-3.0621-13.269-13.555 10.721c-9.4225 7.4527-11.008 21.039-3.5549 30.461l5.7e-4 7.3e-4c7.4528 9.4225 21.038 11.008 30.461 3.5555l13.141-10.394zm-6.5846-1.5442-4.1961 3.3189-7.6344-9.6522 3.4854-2.7568 0.7107-0.56211 4.2398 5.3604zm-19.486 6.0895c-5.1758 4.0938-10.122 4.3096-13.281 0.65008l5.9221-4.6841c0.95998 1.022 2.5551 0.85954 3.8257-0.1455 1.1074-0.87589 1.6963-2.0239 1.0829-2.7515-0.39158-0.54301-1.163-0.72797-2.7206 0.10606l-4.1531 2.2234c-4.1859 2.2307-7.1752 2.0941-9.2915-0.53361-3.0101-3.8536-1.2698-9.1533 3.6844-13.072 5.4788-4.3335 10.577-4.405 13.831-1.0096l-6.3881 5.0526c-1.0784-1.004-2.6023-0.82219-4.0594 0.33032-1.1773 0.93125-1.6964 2.024-1.1297 2.7885 0.55809 0.65767 1.4829 0.53315 3.0846-0.31683l3.6132-1.9483c4.1558-2.2448 7.415-1.8853 9.623 0.95417 2.9737 3.7118 1.4748 8.3085-3.6427 12.356z" stroke-width=".55581"/>
 </g>
</svg>
