<?xml version="1.0" encoding="UTF-8" standalone="no"?>
<!-- Created with Inkscape (http://www.inkscape.org/) -->

<svg
   xmlns:dc="http://purl.org/dc/elements/1.1/"
   xmlns:cc="http://creativecommons.org/ns#"
   xmlns:rdf="http://www.w3.org/1999/02/22-rdf-syntax-ns#"
   xmlns:svg="http://www.w3.org/2000/svg"
   xmlns="http://www.w3.org/2000/svg"
   xmlns:sodipodi="http://sodipodi.sourceforge.net/DTD/sodipodi-0.dtd"
   xmlns:inkscape="http://www.inkscape.org/namespaces/inkscape"
   width="373.24698mm"
   height="240.94485mm"
   version="1.1"
   viewBox="0 0 373.24699 240.94486"
   id="svg847"
   sodipodi:docname="Nanno's 404.svg"
   inkscape:version="0.92.4 (5da689c313, 2019-01-14)"
   inkscape:export-filename="D:\Users\reynard\Desktop\404.png"
   inkscape:export-xdpi="96"
   inkscape:export-ydpi="96">
  <defs
     id="defs851" />
  <sodipodi:namedview
     pagecolor="#ffffff"
     bordercolor="#666666"
     borderopacity="1"
     objecttolerance="10"
     gridtolerance="10"
     guidetolerance="10"
     inkscape:pageopacity="1"
     inkscape:pageshadow="2"
     inkscape:window-width="1623"
     inkscape:window-height="892"
     id="namedview849"
     showgrid="false"
     inkscape:zoom="0.64349094"
     inkscape:cx="727.12233"
     inkscape:cy="518.1594"
     inkscape:window-x="204"
     inkscape:window-y="6"
     inkscape:window-maximized="0"
     inkscape:current-layer="svg847" />
  <metadata
     id="metadata815">
    <rdf:RDF>
      <cc:Work
         rdf:about="">
        <dc:format>image/svg+xml</dc:format>
        <dc:type
           rdf:resource="http://purl.org/dc/dcmitype/StillImage" />
        <dc:title></dc:title>
      </cc:Work>
    </rdf:RDF>
  </metadata>
  <text
     xml:space="preserve"
     style="font-style:normal;font-variant:normal;font-weight:bold;font-stretch:normal;font-size:189.23873901px;line-height:1.25;font-family:Inter;-inkscape-font-specification:'Inter Bold';letter-spacing:0px;word-spacing:0px;fill:#e70000;fill-opacity:1;stroke:#000000;stroke-width:3.94247389;stroke-miterlimit:4;stroke-dasharray:none;stroke-opacity:1"
     x="-7.1009326"
     y="182.72617"
     id="text981"><tspan
       sodipodi:role="line"
       id="tspan979"
       x="-7.1009326"
       y="182.72617"
       style="fill:#e70000;fill-opacity:1;stroke:#000000;stroke-width:3.94247389;stroke-miterlimit:4;stroke-dasharray:none;stroke-opacity:1">404</tspan></text>
  <g
     id="g869"
     transform="rotate(-146.22112,221.37241,32.777787)">
    <path
       d="m 164.37571,66.280386 c -0.77295,0.12882 -2.9327,9.6126 -11.403,9.2604 -10.574,-0.4396 -7.8736,-10.583 -7.8736,-10.583 l 8.129,-31.75 c 0,0 2.7097,-10.583 13.293,-10.583 7.9375,0 6.5827,5.2917 6.5827,5.2917 0,0 9.157,-4.4974 20.214,-4.9137 17.721,-0.6671 15.858,11.085 12.73,22.112 l -1.2006,3.2128 c 0,0 -11.431,27.592 -22.015,27.592 -10.583,0 -5.9838,-10.961 -5.9838,-10.961 l 4.0645,-15.875 c 0,0 1.5922,-5.4806 -3.6995,-5.4806 -5.2917,0 -6.8839,5.4806 -6.8839,5.4806 z"
       id="path817"
       inkscape:connector-curvature="0"
       style="fill:#007fff;stroke:#000000;stroke-width:4.23330021;stroke-linecap:round;stroke-linejoin:round" />
    <circle
       id="circle819"
       r="6.9926"
       cy="83.330383"
       cx="150.29572"
       style="stroke:#000000;stroke-width:4.23330021;stroke-linecap:round;stroke-linejoin:round" />
    <circle
       id="circle821"
       r="6.9926"
       cy="83.330383"
       cx="178.2657"
       style="stroke:#000000;stroke-width:4.23330021;stroke-linecap:round;stroke-linejoin:round" />
  </g>
  <g
     id="g975"
     transform="rotate(-160.35008,73.851888,36.663465)">
    <circle
       id="circle823"
       r="15.497"
       cy="7.5704541"
       cx="37.615788"
       style="stroke:#000000;stroke-width:4.23330021;stroke-linecap:round;stroke-linejoin:round" />
    <g
       transform="translate(-53.7696,-68.704517)"
       id="g835"
       style="fill:none;stroke:#000000;stroke-width:4.23330021;stroke-linecap:round;stroke-linejoin:round">
      <path
         sodipodi:nodetypes="ccccc"
         d="m 85.082,92.672 -19.504,39.342 -24.33999,3.15272 8.46489,19.14788 -16.709242,-6.70761"
         id="path827"
         inkscape:connector-curvature="0" />
      <path
         d="m 65.579,132.01 20.411,6.9926 -1.7009,18.521 13.772,-6.4412"
         id="path829"
         inkscape:connector-curvature="0" />
      <path
         sodipodi:nodetypes="cc"
         d="M 80.698,102.15 53.346675,76.679601"
         id="path831"
         inkscape:connector-curvature="0" />
      <path
         sodipodi:nodetypes="cc"
         d="m 80.698,102.15 32.39699,12.40981"
         id="path833"
         inkscape:connector-curvature="0" />
    </g>
  </g>
  <path
     style="stroke:#000000;stroke-width:0.45296839;stroke-linecap:round;stroke-linejoin:round"
     d="m 70.033058,159.95608 c -3.187742,9.25734 1.69852,19.27614 10.955857,22.46388 l 7.25e-4,2.5e-4 c 9.257344,3.18776 19.27686,-1.69828 22.4646,-10.95561 l 20.82967,-60.49024 -11.35382,-6.69737 1.39172,2.85357 -22.461281,-10.562345 z m 1.092014,10.08528 1.861414,-5.40562 15.148369,-4.11007 0.06302,-0.18296 -12.277298,-4.22766 2.192775,-6.36794 23.455238,8.07677 -1.830034,5.3145 -15.241492,4.2313 -0.04748,0.13768 12.323218,4.24347 -2.192529,6.3672 z m 10.423235,-30.26951 2.997099,-8.70368 26.121214,0.33463 -2.36624,6.87169 -4.95455,-0.19464 -2.66597,7.74212 4.02395,2.89707 -2.36625,6.87167 z m 6.430077,-18.67321 1.861418,-5.40563 15.148368,-4.11005 0.0632,-0.18377 -12.277292,-4.22766 2.192534,-6.3672 23.455238,8.07676 -1.82979,5.31378 -15.24149,4.2313 -0.0475,0.13772 12.32322,4.24346 -2.19278,6.36792 z m 1.496738,16.63726 6.936829,5.00222 1.672132,-4.85596 -8.545949,-0.32924 z"
     id="path895"
     inkscape:connector-curvature="0" />
  <path
     style="stroke:#000000;stroke-width:0.99638015;stroke-linecap:round;stroke-linejoin:round"
     d="m 158.76949,129.81564 -24.07323,49.00377 6.32823,-2.95376 -15.15599,24.71965 109.64545,39.86138 17.35945,-17.1632 -6.3876,-3.07358 11.80304,-54.21419 z m 73.10587,35.88546 c 13.9225,5.06149 21.59005,18.28219 15.36332,35.40987 -6.22675,17.1277 -20.59463,22.3374 -34.51714,17.2759 -14.0227,-5.09789 -21.55367,-18.3823 -15.36334,-35.40985 6.22674,-17.12769 20.49444,-22.37384 34.51716,-17.27592 z m -75.95276,-26.81845 11.81902,4.29675 8.47092,33.4708 0.39995,0.1456 9.75884,-26.84338 13.923,5.06166 -18.64389,51.28314 -11.61974,-4.22435 -8.73408,-33.68014 -0.29964,-0.10897 -9.79537,26.94381 -13.92298,-5.06166 z m 71.54646,38.93869 c -6.9112,-2.51255 -12.43774,1.14789 -15.78781,10.36281 -3.35006,9.2149 -1.46462,15.56995 5.44656,18.08249 6.91118,2.51254 12.43773,-1.14788 15.78781,-10.36279 3.35006,-9.21491 1.46462,-15.56997 -5.44656,-18.08251 z"
     id="path955"
     inkscape:connector-curvature="0" />
  <path
     style="stroke:#000000;stroke-width:0.55580699;stroke-linecap:round;stroke-linejoin:round"
     d="m 322.36643,177.17805 -22.27843,-21.48499 -3.33028,2.13187 -3.06213,-13.2687 -7.32445,5.79327 -6.23031,4.92786 c -9.42254,7.45274 -11.0077,21.03877 -3.55494,30.46133 l 5.7e-4,7.3e-4 c 7.45275,9.42254 21.03805,11.00826 30.46059,3.55554 l 13.1406,-10.3936 z m -6.58465,-1.54424 -4.19612,3.31893 -7.63443,-9.6522 3.48544,-2.75685 0.7107,-0.56211 4.23979,5.36041 z m -19.48596,6.08946 c -5.17576,4.09378 -10.12174,4.30958 -13.28147,0.65008 l 5.92207,-4.68406 c 0.95998,1.02196 2.5551,0.85954 3.82571,-0.1455 1.10742,-0.87589 1.69634,-2.02388 1.0829,-2.75149 -0.39158,-0.54301 -1.16304,-0.72797 -2.72057,0.10606 l -4.15313,2.22342 c -4.18589,2.23068 -7.17515,2.09414 -9.2915,-0.53361 -3.01011,-3.85364 -1.26982,-9.15332 3.68444,-13.07189 5.47882,-4.33349 10.5766,-4.40497 13.83064,-1.00962 l -6.38808,5.05265 c -1.07839,-1.00404 -2.60229,-0.82219 -4.05943,0.33032 -1.17734,0.93125 -1.69643,2.02399 -1.12966,2.78851 0.55809,0.65767 1.48293,0.53315 3.08462,-0.31683 l 3.61316,-1.94834 c 4.1558,-2.24477 7.415,-1.8853 9.62298,0.95417 2.97374,3.7118 1.4748,8.30846 -3.64268,12.35611 z"
     id="path965"
     inkscape:connector-curvature="0" />
</svg>
