<?xml version="1.0" encoding="UTF-8"?>
<svg width="129.01mm" height="131.23mm" version="1.1" viewBox="0 0 129.01 131.23" xmlns="http://www.w3.org/2000/svg" xmlns:cc="http://creativecommons.org/ns#" xmlns:dc="http://purl.org/dc/elements/1.1/" xmlns:rdf="http://www.w3.org/1999/02/22-rdf-syntax-ns#">
 <metadata>
  <rdf:RDF>
   <cc:Work rdf:about="">
    <dc:format>image/svg+xml</dc:format>
    <dc:type rdf:resource="http://purl.org/dc/dcmitype/StillImage"/>
    <dc:title/>
   </cc:Work>
  </rdf:RDF>
 </metadata>
 <g stroke="#000" stroke-linecap="round" stroke-linejoin="round" stroke-width="4.2333">
  <path d="m83.154 79.599c-0.77295 0.12882-2.9327 9.6126-11.403 9.2604-10.574-0.4396-7.8736-10.583-7.8736-10.583l8.129-31.75s2.7097-10.583 13.293-10.583c7.9375 0 6.5827 5.2917 6.5827 5.2917s9.157-4.4974 20.214-4.9137c17.721-0.6671 15.858 11.085 12.73 22.112l-1.2006 3.2128s-11.431 27.592-22.015 27.592c-10.583 0-5.9838-10.961-5.9838-10.961l4.0645-15.875s1.5922-5.4806-3.6995-5.4806-6.8839 5.4806-6.8839 5.4806z" fill="#007fff"/>
  <g transform="translate(-41.106 -59.971)">
   <circle cx="110.18" cy="156.62" r="6.9926"/>
   <circle cx="138.15" cy="156.62" r="6.9926"/>
   <circle cx="89.202" cy="77.585" r="15.497"/>
  </g>
  <g transform="translate(-41.106 -59.971)" fill="none">
   <path d="m85.082 92.672-19.504 39.342 2.0789 16.253-17.954 6.0476 10.583 9.4494"/>
   <path d="m65.579 132.01 20.411 6.9926-1.7009 18.521 13.772-6.4412"/>
   <path d="m80.698 102.15 35.53-1.8899"/>
   <path d="m80.698 102.15 33.052 2.5846"/>
  </g>
 </g>
 <g transform="matrix(.87427 0 0 .87427 -37.232 -69.703)">
  <rect x="42.763" y="202.12" width="129.63" height="27.529" ry="13.764" stroke="#000" stroke-linecap="round" stroke-linejoin="round" stroke-width=".35278"/>
  <g fill="#fff" stroke-width=".35578" style="font-feature-settings:normal;font-variant-caps:normal;font-variant-ligatures:normal;font-variant-numeric:normal" aria-label="NANNO's">
   <path d="m66.093 205.48h-5.2451v10.113h-0.15094l-6.8677-10.113h-4.4527v19.32h5.2451v-10.151h0.1132l6.9809 10.151h4.3772z" style="font-feature-settings:normal;font-variant-caps:normal;font-variant-ligatures:normal;font-variant-numeric:normal"/>
   <path d="m73.602 224.8 1.1132-3.698h6.3771l1.1132 3.698h5.6602l-6.3771-19.32h-7.1695l-6.3771 19.32zm2.3018-7.6223 1.9245-6.3771h0.15094l1.9245 6.3771z" style="font-feature-settings:normal;font-variant-caps:normal;font-variant-ligatures:normal;font-variant-numeric:normal"/>
   <path d="m106.43 205.48h-5.2451v10.113h-0.15093l-6.8677-10.113h-4.4527v19.32h5.2451v-10.151h0.1132l6.9809 10.151h4.3772z" style="font-feature-settings:normal;font-variant-caps:normal;font-variant-ligatures:normal;font-variant-numeric:normal"/>
   <path d="m125.64 205.48h-5.2451v10.113h-0.15094l-6.8676-10.113h-4.4527v19.32h5.2451v-10.151h0.1132l6.9809 10.151h4.3772z" style="font-feature-settings:normal;font-variant-caps:normal;font-variant-ligatures:normal;font-variant-numeric:normal"/>
   <path d="m146.84 215.14c0-6.4526-4.1508-9.9241-9.3959-9.9241-5.2828 0-9.3959 3.4716-9.3959 9.9241 0 6.4148 4.113 9.9241 9.3959 9.9241 5.2451 0 9.3959-3.4716 9.3959-9.9241zm-5.396 0c0 3.4716-1.3962 5.3583-3.9998 5.3583s-3.9998-1.8867-3.9998-5.3583c0-3.4716 1.3962-5.3583 3.9998-5.3583s3.9998 1.8867 3.9998 5.3583z" style="font-feature-settings:normal;font-variant-caps:normal;font-variant-ligatures:normal;font-variant-numeric:normal"/>
   <path d="m152.35 205.48h-3.3961v7.811h3.3961z" style="font-feature-settings:normal;font-variant-caps:normal;font-variant-ligatures:normal;font-variant-numeric:normal"/>
   <path d="m167.9 215.03c-0.13207-3.0659-2.6791-4.9055-6.8677-4.9055-4.1414 0-6.6978 1.698-6.679 4.7168-0.0189 2.2829 1.4622 3.7451 4.4149 4.264l2.5659 0.45282c1.132 0.20753 1.6414 0.50941 1.6603 1.0566-0.0189 0.60375-0.70752 0.94336-1.6603 0.94336-1.1792 0-2.0094-0.50942-2.1509-1.4339h-5.1696c0.283 2.9716 2.8489 4.9432 7.2827 4.9432 4.0093 0 6.962-1.9528 6.9809-5.0564-0.0189-2.1414-1.4528-3.3867-4.4149-3.9244l-2.9433-0.52828c-1.1037-0.1981-1.415-0.59431-1.3962-1.0188-0.0189-0.60375 0.72638-0.94336 1.6226-0.94336 1.0283 0 1.8867 0.54715 1.9622 1.4339z" style="font-feature-settings:normal;font-variant-caps:normal;font-variant-ligatures:normal;font-variant-numeric:normal"/>
  </g>
 </g>
</svg>
